<svg width="69" height="69" viewBox="0 0 69 69" fill="none" xmlns="http://www.w3.org/2000/svg">
<g clip-path="url(#clip0_3948_485)">
<path d="M19.9458 51.1189C16.9312 50.9649 16.988 46.7248 19.9457 46.5776C28.3238 46.6067 50.4217 46.5854 59.0663 46.5915C61.4306 46.5915 63.4535 44.9824 63.9853 42.6789L68.8939 21.423C69.175 20.206 68.8913 18.9463 68.1157 17.9673C67.3402 16.9882 66.1791 16.4188 64.9301 16.4188C61.4525 16.4188 31.9332 16.2852 16.8135 16.2249L14.4168 7.33198C13.8414 5.20681 11.9021 3.72266 9.70046 3.72266H2.02255C0.905561 3.72266 -5.72205e-06 4.62822 -5.72205e-06 5.74521C-5.72205e-06 6.86221 0.905561 7.76777 2.02255 7.76777H9.70046C10.0795 7.76777 10.4132 8.02329 10.5118 8.38695L19.7164 42.538C18.098 42.5968 16.5905 43.255 15.4474 44.4149C14.2462 45.6338 13.6012 47.2473 13.631 48.9583C13.6906 52.38 16.5234 55.1639 19.9458 55.1639H22.895C22.4566 56.084 22.2105 57.1127 22.2105 58.1978C22.2105 62.1014 25.3862 65.2771 29.2897 65.2771C33.1933 65.2771 36.369 62.1014 36.369 58.1978C36.369 57.1125 36.1228 56.084 35.6844 55.1639H48.4557C48.0177 56.0837 47.7716 57.1119 47.7716 58.1968C47.7716 62.1003 50.9474 65.276 54.8508 65.276C58.7544 65.276 61.9302 62.1002 61.9302 58.1968C61.9302 57.0697 61.664 56.0039 61.1935 55.0571C61.9938 54.7875 62.571 54.0326 62.571 53.1414C62.571 52.0244 61.6654 51.1189 60.5484 51.1189H19.9458ZM32.3237 58.198C32.3237 59.871 30.9627 61.2321 29.2896 61.2321C27.6166 61.2321 26.2555 59.871 26.2555 58.198C26.2555 56.5259 27.6152 55.1653 29.2871 55.164H29.2922C30.964 55.1653 32.3237 56.5259 32.3237 58.198ZM54.851 61.231C53.1781 61.231 51.8169 59.8698 51.8169 58.1969C51.8169 56.5404 53.1515 55.1906 54.8018 55.164H54.9003C56.5507 55.1906 57.8854 56.5404 57.8854 58.1969C57.8852 59.8698 56.524 61.231 54.851 61.231ZM64.9449 20.4787C64.9569 20.4938 64.9551 20.501 64.9526 20.5126L62.8843 29.4692H55.8806L57.0732 20.432L64.9139 20.4635C64.9259 20.4638 64.933 20.4638 64.9449 20.4787ZM44.093 42.5462V33.5143H51.2666L50.0746 42.5462H44.093ZM34.0635 42.5462L32.8619 33.5143H40.0479V42.5462H34.0635ZM24.7526 42.5462H24.7463C24.2533 42.5461 23.819 42.2136 23.6908 41.7399L21.4738 33.5143H28.781L29.9827 42.5462H24.7526ZM32.3236 29.4693L31.1072 20.3275L40.0477 20.3635V29.4693H32.3236ZM44.093 29.4693V20.3798L52.9952 20.4156L51.8004 29.4693H44.093ZM27.0242 20.3109L28.2427 29.4692H20.3835L17.9052 20.2741L27.0242 20.3109ZM59.0663 42.5462H54.1547L55.3466 33.5143H61.95L60.0438 41.7686C59.9381 42.2265 59.5362 42.5462 59.0663 42.5462Z" fill="white"/>
</g>
<defs>
<clipPath id="clip0_3948_485">
<rect width="69" height="69" fill="white"/>
</clipPath>
</defs>
</svg>
