<svg width="25" height="14" viewBox="0 0 25 14" fill="none" xmlns="http://www.w3.org/2000/svg">
<path d="M23.8654 13.8601C23.8745 13.8581 23.8834 13.8554 23.8924 13.8528C23.9001 13.8507 23.9078 13.8489 23.9153 13.8464C23.9241 13.8434 23.9327 13.8398 23.9412 13.8364C23.9488 13.8334 23.9565 13.8307 23.964 13.8272C23.9721 13.8235 23.9799 13.8192 23.9877 13.8151C23.9954 13.8111 24.0032 13.8074 24.0107 13.803C24.0182 13.7986 24.0253 13.7936 24.0326 13.7888C24.0401 13.7839 24.0477 13.7792 24.055 13.7738C24.0628 13.7681 24.07 13.7618 24.0776 13.7557C24.0839 13.7505 24.0903 13.7456 24.0965 13.7401C24.1079 13.7298 24.1187 13.7189 24.1292 13.7076C24.1311 13.7056 24.1332 13.7039 24.1351 13.7019C24.137 13.6997 24.1387 13.6973 24.1406 13.6951C24.1507 13.6837 24.1606 13.672 24.1698 13.6596C24.1753 13.6524 24.18 13.6448 24.185 13.6374C24.1902 13.6297 24.1957 13.6222 24.2005 13.6142C24.2057 13.6056 24.2103 13.5967 24.2151 13.588C24.2191 13.5806 24.2234 13.5733 24.2271 13.5657C24.2314 13.5568 24.2351 13.5477 24.239 13.5386C24.2424 13.5306 24.246 13.5227 24.2492 13.5144C24.2526 13.5056 24.2552 13.4966 24.2582 13.4876C24.2611 13.4788 24.2642 13.4701 24.2666 13.4611C24.2692 13.452 24.271 13.4428 24.2731 13.4335C24.2751 13.4244 24.2775 13.4155 24.2791 13.4063C24.2811 13.3955 24.2823 13.3845 24.2837 13.3736C24.2847 13.3659 24.286 13.3582 24.2867 13.3505C24.2885 13.3313 24.2894 13.3121 24.2894 13.2928V0.939054C24.2894 0.619783 24.0536 0.361084 23.7626 0.361084H7.16977C7.16513 0.361084 7.16064 0.3617 7.156 0.361854C7.14596 0.362162 7.13598 0.362625 7.12601 0.36355C7.11807 0.364243 7.11021 0.365245 7.10234 0.366401C7.09335 0.367634 7.08443 0.369098 7.07551 0.370871C7.06715 0.372489 7.05887 0.374416 7.05065 0.376496C7.04229 0.378654 7.03393 0.380966 7.02565 0.383586C7.01743 0.386129 7.00935 0.388903 7.00134 0.391832C6.99313 0.394914 6.98491 0.398151 6.97683 0.401696C6.96918 0.40501 6.96166 0.4084 6.95422 0.412099C6.94593 0.416183 6.93771 0.420576 6.92957 0.425123C6.92261 0.429053 6.9158 0.43306 6.90906 0.437299C6.90091 0.442385 6.8929 0.447779 6.88497 0.453328C6.87843 0.457952 6.87204 0.462729 6.86572 0.467584C6.85828 0.473364 6.8509 0.479375 6.84367 0.485694C6.83707 0.491474 6.8306 0.497408 6.82421 0.503496C6.81789 0.509584 6.81164 0.515671 6.80553 0.522145C6.79858 0.529466 6.79191 0.537095 6.7853 0.544801C6.782 0.548654 6.77849 0.552045 6.77533 0.555975C6.77343 0.558287 6.77196 0.560831 6.77013 0.563142C6.76353 0.571542 6.75735 0.580327 6.75117 0.589189C6.74667 0.595663 6.74204 0.602136 6.73783 0.608763C6.73235 0.617394 6.72729 0.626257 6.72223 0.635196C6.71809 0.642517 6.71381 0.64976 6.71001 0.657235C6.70559 0.665866 6.70172 0.674729 6.69772 0.683591C6.69407 0.691683 6.69028 0.699774 6.68698 0.70802C6.68353 0.716728 6.68051 0.725744 6.67749 0.734607C6.67447 0.743315 6.67138 0.751946 6.66879 0.760731C6.66619 0.769593 6.66408 0.778609 6.66183 0.787625C6.65958 0.796873 6.6572 0.806043 6.6553 0.815368C6.65354 0.824076 6.65235 0.832939 6.65095 0.841724C6.6494 0.851742 6.64786 0.86176 6.64673 0.871778C6.64582 0.880101 6.6454 0.888577 6.64484 0.897054C6.64413 0.907843 6.6435 0.918632 6.64336 0.929498C6.64329 0.932658 6.64294 0.93574 6.64294 0.9389V4.5032C6.64294 4.82247 6.87872 5.08117 7.1697 5.08117C7.46068 5.08117 7.69645 4.82247 7.69645 4.5032V2.22253L12.3797 6.77208C12.3553 6.79096 12.3318 6.81184 12.3099 6.83581L7.69638 11.8978V8.09956C7.69638 7.78029 7.46061 7.52159 7.16963 7.52159C6.87865 7.52159 6.64287 7.78029 6.64287 8.09956V8.80576H3.92129C3.63031 8.80576 3.39453 9.06446 3.39453 9.38373C3.39453 9.703 3.63031 9.9617 3.92129 9.9617H6.64287V13.2932C6.64287 13.6125 6.87865 13.8712 7.16963 13.8712H23.7625C23.7798 13.8712 23.7972 13.8702 23.8145 13.8683C23.8225 13.8675 23.8303 13.8658 23.8383 13.8645C23.8474 13.8632 23.8564 13.862 23.8654 13.8601ZM23.2358 11.8979L18.6222 6.83589C18.6193 6.83265 18.6161 6.82995 18.6131 6.82687L22.0815 3.59818C22.3033 3.39165 22.3305 3.02699 22.1423 2.78355C21.9542 2.54026 21.6219 2.51021 21.3999 2.71681L15.4734 8.23373L8.55928 1.5171H23.2358V11.8979V11.8979ZM13.0549 7.65337C13.0925 7.61214 13.123 7.56621 13.1468 7.51735L15.1169 9.4312C15.2165 9.52792 15.3412 9.57647 15.4661 9.57647C15.5874 9.57647 15.7085 9.53077 15.807 9.43922L17.8148 7.57014C17.833 7.59942 17.8536 7.6274 17.8773 7.65337L22.4908 12.7154H8.44143L13.0549 7.65337Z" fill="white"/>
<path d="M0.526757 6.94346H9.42313C9.71411 6.94346 9.94989 6.68476 9.94989 6.36549C9.94989 6.04622 9.71411 5.78752 9.42313 5.78752H0.526757C0.235777 5.78752 0 6.04622 0 6.36549C0 6.68476 0.235777 6.94346 0.526757 6.94346Z" fill="white"/>
<path d="M1.44863 3.7584H5.44321C5.73419 3.7584 5.96997 3.4997 5.96997 3.18043C5.96997 2.86116 5.73419 2.60246 5.44321 2.60246H1.44863C1.15765 2.60246 0.921875 2.86116 0.921875 3.18043C0.921875 3.4997 1.15765 3.7584 1.44863 3.7584Z" fill="white"/>
<path d="M4.38964 11.2462H0.526757C0.235777 11.2462 0 11.5049 0 11.8241C0 12.1434 0.235777 12.4021 0.526757 12.4021H4.38964C4.68063 12.4021 4.9164 12.1434 4.9164 11.8241C4.9164 11.5049 4.68063 11.2462 4.38964 11.2462Z" fill="white"/>
</svg>
