<svg width="36" height="44" viewBox="0 0 36 44" fill="none" xmlns="http://www.w3.org/2000/svg">
<path d="M6.65336 43.5318C6.15008 43.4241 5.63765 43.3479 5.14466 43.2041C2.08227 42.3109 0.162566 39.9356 0.0279761 36.6948C-0.11157 33.3306 0.253308 30.0147 1.52142 26.8643C2.3404 24.8309 3.52921 23.0724 5.5206 21.9965C6.74982 21.3324 8.0675 21.0506 9.44771 21.0283C9.92621 21.0206 10.3464 21.2336 10.744 21.4839C11.3625 21.875 11.971 22.2815 12.5917 22.6683C16.2011 24.9168 19.8105 24.9141 23.4198 22.6602C23.9208 22.3472 24.4321 22.045 24.9026 21.6893C25.7658 21.0356 26.7156 20.9552 27.7416 21.1071C30.5413 21.522 32.5185 23.0682 33.8519 25.5361C35.0418 27.7387 35.5485 30.1336 35.8284 32.5946C35.9675 33.8618 36.0221 35.1371 35.9919 36.4118C35.9157 40.2094 33.3512 43.0357 29.606 43.4487C29.5103 43.4595 29.4066 43.4456 29.3322 43.5302L6.65336 43.5318ZM17.9955 40.9808V40.9746C21.5638 40.9746 25.1321 41.0062 28.7001 40.9646C31.6649 40.93 33.4748 39.0235 33.466 36.0369C33.4626 34.9037 33.4336 33.7681 33.291 32.6434C33.0359 30.6285 32.6428 28.65 31.6729 26.837C30.6663 24.9555 29.2076 23.7461 27.013 23.6016C26.8043 23.5813 26.595 23.6341 26.4205 23.7511C25.8905 24.0985 25.3586 24.4419 24.8248 24.7813C20.836 27.3046 16.7133 27.6057 12.4514 25.5292C11.449 25.0408 10.5679 24.3518 9.61623 23.7792C9.47402 23.6935 9.34553 23.5766 9.1587 23.5869C7.79527 23.6669 6.57139 24.0911 5.59113 25.0866C4.77711 25.913 4.20864 26.9051 3.79419 27.9821C2.73463 30.7369 2.4788 33.6216 2.54857 36.5387C2.5867 38.1329 3.26918 39.4365 4.67341 40.2732C5.60867 40.8304 6.64459 40.9808 7.71215 40.9804C11.1393 40.9799 14.5671 40.98 17.9955 40.9808Z" fill="white"/>
<path d="M28.1256 10.4746C28.1439 16.2576 23.5328 20.9207 17.7466 20.9723C12.0427 21.0215 7.36031 16.3195 7.33095 10.5157C7.30159 4.71204 11.9588 -0.00345887 17.7283 1.90372e-06C23.4859 0.00154002 28.1073 4.65782 28.1256 10.4746ZM17.726 18.4205C22.0885 18.4236 25.592 14.8921 25.5966 10.4858C25.6012 6.07942 22.0999 2.55251 17.729 2.55059C13.3581 2.54867 9.86108 6.07212 9.85993 10.4827C9.85596 11.5258 10.0567 12.5595 10.4505 13.524C10.8443 14.4886 11.4235 15.3651 12.1547 16.1029C12.8859 16.8407 13.7545 17.4254 14.7107 17.8232C15.6669 18.2209 16.6917 18.4239 17.726 18.4205Z" fill="white"/>
</svg>
