<svg width="91" height="35" viewBox="0 0 91 35" fill="none" xmlns="http://www.w3.org/2000/svg">
<path d="M47.6017 12.0477C47.6017 13.3213 46.6608 14.3537 45.5 14.3537C44.3392 14.3537 43.3983 13.3213 43.3983 12.0477C43.3983 10.7741 44.3392 9.7417 45.5 9.7417C46.6608 9.7417 47.6017 10.7741 47.6017 12.0477Z" fill="black"/>
<path d="M50.4151 7.96766C50.3141 7.66728 50.1529 7.39539 49.9435 7.17222C49.7401 6.94243 49.4924 6.76558 49.2185 6.65473C48.9963 6.56005 48.6626 6.44736 48.0479 6.41666C47.3829 6.38339 47.1835 6.37622 45.5 6.37622C43.8164 6.37622 43.617 6.38321 42.9522 6.41648C42.3374 6.44736 42.0035 6.56005 41.7815 6.65473C41.5076 6.76558 41.2598 6.94243 41.0566 7.17222C40.8471 7.39539 40.686 7.66709 40.5848 7.96766C40.4985 8.21142 40.3958 8.5778 40.3678 9.25228C40.3375 9.98173 40.3309 10.2005 40.3309 12.0478C40.3309 13.895 40.3375 14.1137 40.3678 14.8434C40.3958 15.5178 40.4985 15.884 40.5848 16.1278C40.686 16.4284 40.847 16.7001 41.0564 16.9233C41.2598 17.153 41.5074 17.3299 41.7814 17.4407C42.0035 17.5356 42.3374 17.6483 42.9522 17.679C43.617 17.7123 43.8162 17.7192 45.4999 17.7192C47.1837 17.7192 47.3831 17.7123 48.0477 17.679C48.6624 17.6483 48.9963 17.5356 49.2185 17.4407C49.7684 17.208 50.203 16.7311 50.4151 16.1278C50.5014 15.884 50.6041 15.5178 50.6323 14.8434C50.6626 14.1137 50.6689 13.895 50.6689 12.0478C50.6689 10.2005 50.6626 9.98173 50.6323 9.25228C50.6043 8.5778 50.5016 8.21142 50.4151 7.96766ZM45.5 15.6C43.7118 15.6 42.2622 14.0097 42.2622 12.0476C42.2622 10.0856 43.7118 8.49526 45.5 8.49526C47.2881 8.49526 48.7377 10.0856 48.7377 12.0476C48.7377 14.0097 47.2881 15.6 45.5 15.6ZM48.8657 9.185C48.4478 9.185 48.109 8.81329 48.109 8.35481C48.109 7.89633 48.4478 7.52462 48.8657 7.52462C49.2835 7.52462 49.6223 7.89633 49.6223 8.35481C49.6221 8.81329 49.2835 9.185 48.8657 9.185Z" fill="black"/>
<path d="M45.5 0C39.4368 0 34.5199 5.39494 34.5199 12.0477C34.5199 18.7004 39.4368 24.0953 45.5 24.0953C51.5632 24.0953 56.4801 18.7004 56.4801 12.0477C56.4801 5.39494 51.5632 0 45.5 0ZM51.7669 14.8998C51.7365 15.6363 51.6297 16.139 51.4739 16.5791C51.1464 17.5084 50.4769 18.243 49.6299 18.6024C49.229 18.7734 48.7706 18.8903 48.0996 18.9239C47.4272 18.9576 47.2125 18.9656 45.5002 18.9656C43.7877 18.9656 43.5731 18.9576 42.9006 18.9239C42.2296 18.8903 41.7712 18.7734 41.3702 18.6024C40.9494 18.4287 40.5684 18.1564 40.2534 17.8044C39.9327 17.459 39.6846 17.0407 39.5263 16.5791C39.3704 16.1392 39.2637 15.6363 39.2332 14.9C39.2022 14.1621 39.195 13.9264 39.195 12.0477C39.195 10.1689 39.2022 9.93321 39.2331 9.19549C39.2635 8.45906 39.3701 7.95628 39.5259 7.51618C39.6842 7.05458 39.9325 6.63636 40.2534 6.29094C40.5682 5.9389 40.9494 5.66664 41.3701 5.49292C41.7712 5.32196 42.2294 5.20504 42.9006 5.1714C43.5729 5.13776 43.7877 5.12967 45.5 5.12967C47.2123 5.12967 47.4271 5.13776 48.0994 5.17158C48.7706 5.20504 49.2288 5.32196 49.6299 5.49274C50.0506 5.66646 50.4318 5.9389 50.7468 6.29094C51.0675 6.63654 51.3158 7.05458 51.4739 7.51618C51.6299 7.95628 51.7365 8.45906 51.7671 9.19549C51.7978 9.93321 51.805 10.1689 51.805 12.0477C51.805 13.9264 51.7978 14.1621 51.7669 14.8998Z" fill="black"/>
<path d="M73.0198 0C66.9566 0 62.0397 5.39494 62.0397 12.0477C62.0397 18.7004 66.9566 24.0953 73.0198 24.0953C79.0831 24.0953 84 18.7004 84 12.0477C84 5.39494 79.0831 0 73.0198 0ZM69.8291 18.2127H67.155V9.38521H69.8291V18.2127ZM68.4921 8.17982H68.4747C67.5773 8.17982 66.997 7.50203 66.997 6.65493C66.997 5.78871 67.5951 5.12967 68.5099 5.12967C69.4247 5.12967 69.9876 5.78871 70.005 6.65493C70.005 7.50203 69.4247 8.17982 68.4921 8.17982ZM79.4716 18.2127H76.7978V13.4902C76.7978 12.3034 76.4106 11.494 75.443 11.494C74.7043 11.494 74.2644 12.0399 74.071 12.567C74.0003 12.7556 73.983 13.0192 73.983 13.283V18.2127H71.309C71.309 18.2127 71.3441 10.2134 71.309 9.38521H73.983V10.6351C74.3384 10.0336 74.9742 9.17803 76.393 9.17803C78.1524 9.17803 79.4716 10.4397 79.4716 13.151V18.2127Z" fill="black"/>
<path d="M28.9603 12.0477C28.9603 5.39321 24.045 0 17.9802 0C11.9153 0 7 5.39321 7 12.0477C7 18.7021 11.9153 24.0953 17.9802 24.0953C18.0445 24.0953 18.1088 24.0953 18.1732 24.0906V14.716H15.8142V11.6994H18.1732V9.47812C18.1732 6.90387 19.6057 5.50145 21.6988 5.50145C22.7025 5.50145 23.5646 5.58145 23.8134 5.6191V8.311H22.3722C21.2356 8.311 21.0126 8.90397 21.0126 9.7746V11.6947H23.7362L23.3802 14.7113H21.0126V23.6294C25.6019 22.1846 28.9603 17.5491 28.9603 12.0477Z" fill="black"/>
<path d="M6.80078 30.6432C6.76953 31.2942 6.60938 31.8086 6.32031 32.1862C6.03125 32.5612 5.63932 32.7487 5.14453 32.7487C4.67318 32.7487 4.35807 32.5481 4.19922 32.1471C4.06641 32.345 3.91146 32.4934 3.73438 32.5924C3.5599 32.6914 3.3763 32.7408 3.18359 32.7408C2.80339 32.7408 2.51432 32.5846 2.31641 32.2721C2.12109 31.9596 2.04688 31.5416 2.09375 31.0182C2.13542 30.5937 2.23828 30.2109 2.40234 29.8698C2.56901 29.5286 2.77865 29.2656 3.03125 29.0807C3.28646 28.8932 3.55729 28.7994 3.84375 28.7994C4.0625 28.7994 4.25521 28.8268 4.42188 28.8815C4.59115 28.9362 4.78906 29.0494 5.01562 29.2213L4.8125 31.4205C4.76302 31.9362 4.91146 32.194 5.25781 32.194C5.52344 32.194 5.74089 32.052 5.91016 31.7682C6.08203 31.4817 6.17578 31.1119 6.19141 30.6588C6.23568 29.6979 6.04948 28.9622 5.63281 28.4518C5.21875 27.9414 4.59505 27.6862 3.76172 27.6862C3.2513 27.6862 2.79818 27.8138 2.40234 28.069C2.00911 28.3242 1.69661 28.694 1.46484 29.1783C1.23307 29.6601 1.10547 30.2096 1.08203 30.8268C1.05078 31.4544 1.125 31.9961 1.30469 32.4518C1.48698 32.9049 1.76432 33.25 2.13672 33.4869C2.51172 33.7239 2.96875 33.8424 3.50781 33.8424C3.72656 33.8424 3.95443 33.8164 4.19141 33.7643C4.43099 33.7122 4.63411 33.6419 4.80078 33.5533L4.94922 34.0885C4.79036 34.1927 4.57552 34.276 4.30469 34.3385C4.03646 34.4036 3.76562 34.4362 3.49219 34.4362C2.83073 34.4362 2.26302 34.2955 1.78906 34.0143C1.3151 33.7356 0.959635 33.3307 0.722656 32.7994C0.477865 32.25 0.369792 31.5924 0.398438 30.8268C0.429688 30.1132 0.589844 29.4726 0.878906 28.9049C1.16797 28.3346 1.5625 27.8919 2.0625 27.5768C2.5651 27.2617 3.13672 27.1041 3.77734 27.1041C4.42578 27.1041 4.98307 27.2474 5.44922 27.5338C5.91797 27.8177 6.26823 28.2278 6.5 28.7643C6.73177 29.2981 6.83203 29.9244 6.80078 30.6432ZM2.85938 31.0182C2.82552 31.3724 2.85677 31.6419 2.95312 31.8268C3.04948 32.0091 3.20312 32.1002 3.41406 32.1002C3.55469 32.1002 3.6875 32.039 3.8125 31.9166C3.9375 31.7916 4.03906 31.6211 4.11719 31.4049L4.29297 29.4791C4.16276 29.4296 4.03646 29.4049 3.91406 29.4049C3.625 29.4049 3.38932 29.5416 3.20703 29.8151C3.02474 30.0859 2.90885 30.4869 2.85938 31.0182ZM12.2734 29.9713C12.2734 30.5286 12.1771 31.0182 11.9844 31.4401C11.7917 31.8593 11.5156 32.1823 11.1562 32.4088C10.7995 32.6328 10.388 32.7448 9.92188 32.7448C9.46094 32.7448 9.04948 32.6328 8.6875 32.4088C8.32812 32.1823 8.04948 31.8606 7.85156 31.444C7.65625 31.0273 7.55729 30.5468 7.55469 30.0026V29.6823C7.55469 29.1276 7.65234 28.638 7.84766 28.2135C8.04557 27.789 8.32292 27.4648 8.67969 27.2408C9.03906 27.0143 9.45052 26.901 9.91406 26.901C10.3776 26.901 10.7878 27.013 11.1445 27.2369C11.5039 27.4583 11.7812 27.7786 11.9766 28.1979C12.1719 28.6145 12.2708 29.1002 12.2734 29.6549V29.9713ZM11.2852 29.6744C11.2852 29.0442 11.1654 28.5612 10.9258 28.2252C10.6888 27.8893 10.3516 27.7213 9.91406 27.7213C9.48698 27.7213 9.15234 27.8893 8.91016 28.2252C8.67057 28.5586 8.54818 29.0312 8.54297 29.6432V29.9713C8.54297 30.5963 8.66406 31.0794 8.90625 31.4205C9.15104 31.7617 9.48958 31.9323 9.92188 31.9323C10.3594 31.9323 10.6953 31.7656 10.9297 31.4323C11.1667 31.0989 11.2852 30.6119 11.2852 29.9713V29.6744ZM13.5 32.6666V29.1432H12.8555V28.4401H13.5V28.0533C13.5 27.5846 13.6302 27.2226 13.8906 26.9674C14.151 26.7122 14.5156 26.5846 14.9844 26.5846C15.151 26.5846 15.3281 26.608 15.5156 26.6549L15.4922 27.3971C15.388 27.3763 15.2669 27.3658 15.1289 27.3658C14.6758 27.3658 14.4492 27.5989 14.4492 28.0651V28.4401H15.9023V28.151C15.9049 27.8203 15.9753 27.5364 16.1133 27.2994C16.2513 27.0625 16.4466 26.8841 16.6992 26.7643C16.9518 26.6445 17.2552 26.5846 17.6094 26.5846C17.8177 26.5846 18.0169 26.6067 18.207 26.651C18.3997 26.6953 18.599 26.7513 18.8047 26.819L18.6562 27.6041C18.3021 27.4791 17.9753 27.4166 17.6758 27.4166C17.3867 27.4166 17.1771 27.4804 17.0469 27.608C16.9167 27.733 16.8516 27.9218 16.8516 28.1744V28.4401H17.6836V29.1432H16.8516V32.6666H15.9023V29.1432H14.4492V32.6666H13.5ZM19.2539 32.6666H18.3047V28.4401H19.2539V32.6666ZM22.043 31.9869C22.2799 31.9869 22.4766 31.9179 22.6328 31.7799C22.7891 31.6419 22.8724 31.4713 22.8828 31.2682H23.7773C23.7669 31.5312 23.6849 31.7773 23.5312 32.0065C23.3776 32.233 23.1693 32.4127 22.9062 32.5455C22.6432 32.6783 22.3594 32.7448 22.0547 32.7448C21.4635 32.7448 20.9948 32.5533 20.6484 32.1705C20.3021 31.7877 20.1289 31.2591 20.1289 30.5846V30.4869C20.1289 29.8437 20.3008 29.3294 20.6445 28.944C20.9883 28.5559 21.457 28.3619 22.0508 28.3619C22.5534 28.3619 22.9622 28.5091 23.2773 28.8033C23.5951 29.095 23.7617 29.4791 23.7773 29.9557H22.8828C22.8724 29.7135 22.7891 29.5143 22.6328 29.358C22.4792 29.2018 22.2826 29.1237 22.043 29.1237C21.7357 29.1237 21.4987 29.2356 21.332 29.4596C21.1654 29.6809 21.0807 30.0182 21.0781 30.4713V30.6237C21.0781 31.082 21.1602 31.4244 21.3242 31.651C21.4909 31.875 21.7305 31.9869 22.043 31.9869ZM26.3555 32.7448C25.7539 32.7448 25.2656 32.5559 24.8906 32.1783C24.5182 31.7981 24.332 31.2929 24.332 30.6627V30.5455C24.332 30.1237 24.4128 29.7474 24.5742 29.4166C24.7383 29.0833 24.9674 28.8242 25.2617 28.6393C25.556 28.4544 25.8841 28.3619 26.2461 28.3619C26.8216 28.3619 27.2656 28.5455 27.5781 28.9127C27.8932 29.2799 28.0508 29.7994 28.0508 30.4713V30.8541H25.2891C25.3177 31.2031 25.4336 31.4791 25.6367 31.6823C25.8424 31.8854 26.1003 31.9869 26.4102 31.9869C26.8451 31.9869 27.1992 31.8112 27.4727 31.4596L27.9844 31.9479C27.8151 32.2005 27.5885 32.3971 27.3047 32.5377C27.0234 32.6757 26.707 32.7448 26.3555 32.7448ZM26.2422 29.1237C25.9818 29.1237 25.7708 29.2148 25.6094 29.3971C25.4505 29.5794 25.349 29.8333 25.3047 30.1588H27.1133V30.0885C27.0924 29.7708 27.0078 29.5312 26.8594 29.3698C26.7109 29.2057 26.5052 29.1237 26.2422 29.1237ZM28.8828 32.6666V26.9791H30.832C31.4753 26.9791 31.9648 27.108 32.3008 27.3658C32.6367 27.6237 32.8047 28.0078 32.8047 28.5182C32.8047 28.7786 32.7344 29.013 32.5938 29.2213C32.4531 29.4296 32.2474 29.5911 31.9766 29.7057C32.2839 29.789 32.5208 29.9466 32.6875 30.1783C32.8568 30.4075 32.9414 30.6836 32.9414 31.0065C32.9414 31.5403 32.7695 31.9505 32.4258 32.2369C32.0846 32.5234 31.5951 32.6666 30.957 32.6666H28.8828ZM29.8711 30.1002V31.8776H30.9688C31.2786 31.8776 31.5208 31.8007 31.6953 31.6471C31.8698 31.4934 31.957 31.2799 31.957 31.0065C31.957 30.4153 31.6549 30.1132 31.0508 30.1002H29.8711ZM29.8711 29.3737H30.8398C31.1471 29.3737 31.3867 29.3046 31.5586 29.1666C31.7331 29.026 31.8203 28.8281 31.8203 28.5729C31.8203 28.2916 31.7396 28.0885 31.5781 27.9635C31.4193 27.8385 31.1706 27.776 30.832 27.776H29.8711V29.3737ZM36.3984 32.2526C36.1198 32.5807 35.724 32.7448 35.2109 32.7448C34.7526 32.7448 34.4049 32.6106 34.168 32.3424C33.9336 32.0742 33.8164 31.6862 33.8164 31.1783V28.4401H34.7656V31.1666C34.7656 31.7031 34.9883 31.9713 35.4336 31.9713C35.8945 31.9713 36.2057 31.8059 36.3672 31.4752V28.4401H37.3164V32.6666H36.4219L36.3984 32.2526ZM40.6523 31.5182C40.6523 31.3489 40.582 31.22 40.4414 31.1315C40.3034 31.0429 40.0729 30.9648 39.75 30.8971C39.4271 30.8294 39.1576 30.7434 38.9414 30.6393C38.4674 30.4101 38.2305 30.0781 38.2305 29.6432C38.2305 29.2786 38.3841 28.9739 38.6914 28.7291C38.9987 28.4843 39.3893 28.3619 39.8633 28.3619C40.3685 28.3619 40.776 28.4869 41.0859 28.7369C41.3984 28.9869 41.5547 29.3112 41.5547 29.7096H40.6055C40.6055 29.5273 40.5378 29.3763 40.4023 29.2565C40.2669 29.1341 40.0872 29.0729 39.8633 29.0729C39.6549 29.0729 39.4844 29.1211 39.3516 29.2174C39.2214 29.3138 39.1562 29.4427 39.1562 29.6041C39.1562 29.75 39.2174 29.8632 39.3398 29.944C39.4622 30.0247 39.7096 30.1067 40.082 30.1901C40.4544 30.2708 40.7461 30.3684 40.957 30.483C41.1706 30.595 41.3281 30.7304 41.4297 30.8893C41.5339 31.0481 41.5859 31.2408 41.5859 31.4674C41.5859 31.8476 41.4284 32.1562 41.1133 32.3932C40.7982 32.6276 40.3854 32.7448 39.875 32.7448C39.5286 32.7448 39.2201 32.6823 38.9492 32.5573C38.6784 32.4323 38.4674 32.2604 38.3164 32.0416C38.1654 31.8229 38.0898 31.5872 38.0898 31.3346H39.0117C39.0247 31.5586 39.1094 31.7317 39.2656 31.8541C39.4219 31.9739 39.6289 32.0338 39.8867 32.0338C40.1367 32.0338 40.3268 31.9869 40.457 31.8932C40.5872 31.7968 40.6523 31.6718 40.6523 31.5182ZM43.4258 32.6666H42.4766V28.4401H43.4258V32.6666ZM42.418 27.3424C42.418 27.1966 42.4635 27.0755 42.5547 26.9791C42.6484 26.8828 42.7812 26.8346 42.9531 26.8346C43.125 26.8346 43.2578 26.8828 43.3516 26.9791C43.4453 27.0755 43.4922 27.1966 43.4922 27.3424C43.4922 27.4856 43.4453 27.6054 43.3516 27.7018C43.2578 27.7955 43.125 27.8424 42.9531 27.8424C42.7812 27.8424 42.6484 27.7955 42.5547 27.7018C42.4635 27.6054 42.418 27.4856 42.418 27.3424ZM45.3438 28.4401L45.3711 28.9283C45.6836 28.5507 46.0938 28.3619 46.6016 28.3619C47.4818 28.3619 47.9297 28.8658 47.9453 29.8737V32.6666H46.9961V29.9283C46.9961 29.6601 46.9375 29.4622 46.8203 29.3346C46.7057 29.2044 46.5169 29.1393 46.2539 29.1393C45.8711 29.1393 45.5859 29.3125 45.3984 29.6588V32.6666H44.4492V28.4401H45.3438ZM50.7773 32.7448C50.1758 32.7448 49.6875 32.5559 49.3125 32.1783C48.9401 31.7981 48.7539 31.2929 48.7539 30.6627V30.5455C48.7539 30.1237 48.8346 29.7474 48.9961 29.4166C49.1602 29.0833 49.3893 28.8242 49.6836 28.6393C49.9779 28.4544 50.306 28.3619 50.668 28.3619C51.2435 28.3619 51.6875 28.5455 52 28.9127C52.3151 29.2799 52.4727 29.7994 52.4727 30.4713V30.8541H49.7109C49.7396 31.2031 49.8555 31.4791 50.0586 31.6823C50.2643 31.8854 50.5221 31.9869 50.832 31.9869C51.2669 31.9869 51.6211 31.8112 51.8945 31.4596L52.4062 31.9479C52.237 32.2005 52.0104 32.3971 51.7266 32.5377C51.4453 32.6757 51.1289 32.7448 50.7773 32.7448ZM50.6641 29.1237C50.4036 29.1237 50.1927 29.2148 50.0312 29.3971C49.8724 29.5794 49.7708 29.8333 49.7266 30.1588H51.5352V30.0885C51.5143 29.7708 51.4297 29.5312 51.2812 29.3698C51.1328 29.2057 50.9271 29.1237 50.6641 29.1237ZM55.582 31.5182C55.582 31.3489 55.5117 31.22 55.3711 31.1315C55.2331 31.0429 55.0026 30.9648 54.6797 30.8971C54.3568 30.8294 54.0872 30.7434 53.8711 30.6393C53.3971 30.4101 53.1602 30.0781 53.1602 29.6432C53.1602 29.2786 53.3138 28.9739 53.6211 28.7291C53.9284 28.4843 54.319 28.3619 54.793 28.3619C55.2982 28.3619 55.7057 28.4869 56.0156 28.7369C56.3281 28.9869 56.4844 29.3112 56.4844 29.7096H55.5352C55.5352 29.5273 55.4674 29.3763 55.332 29.2565C55.1966 29.1341 55.0169 29.0729 54.793 29.0729C54.5846 29.0729 54.4141 29.1211 54.2812 29.2174C54.151 29.3138 54.0859 29.4427 54.0859 29.6041C54.0859 29.75 54.1471 29.8632 54.2695 29.944C54.3919 30.0247 54.6393 30.1067 55.0117 30.1901C55.3841 30.2708 55.6758 30.3684 55.8867 30.483C56.1003 30.595 56.2578 30.7304 56.3594 30.8893C56.4635 31.0481 56.5156 31.2408 56.5156 31.4674C56.5156 31.8476 56.3581 32.1562 56.043 32.3932C55.7279 32.6276 55.3151 32.7448 54.8047 32.7448C54.4583 32.7448 54.1497 32.6823 53.8789 32.5573C53.6081 32.4323 53.3971 32.2604 53.2461 32.0416C53.0951 31.8229 53.0195 31.5872 53.0195 31.3346H53.9414C53.9544 31.5586 54.0391 31.7317 54.1953 31.8541C54.3516 31.9739 54.5586 32.0338 54.8164 32.0338C55.0664 32.0338 55.2565 31.9869 55.3867 31.8932C55.5169 31.7968 55.582 31.6718 55.582 31.5182ZM59.7148 31.5182C59.7148 31.3489 59.6445 31.22 59.5039 31.1315C59.3659 31.0429 59.1354 30.9648 58.8125 30.8971C58.4896 30.8294 58.2201 30.7434 58.0039 30.6393C57.5299 30.4101 57.293 30.0781 57.293 29.6432C57.293 29.2786 57.4466 28.9739 57.7539 28.7291C58.0612 28.4843 58.4518 28.3619 58.9258 28.3619C59.431 28.3619 59.8385 28.4869 60.1484 28.7369C60.4609 28.9869 60.6172 29.3112 60.6172 29.7096H59.668C59.668 29.5273 59.6003 29.3763 59.4648 29.2565C59.3294 29.1341 59.1497 29.0729 58.9258 29.0729C58.7174 29.0729 58.5469 29.1211 58.4141 29.2174C58.2839 29.3138 58.2188 29.4427 58.2188 29.6041C58.2188 29.75 58.2799 29.8632 58.4023 29.944C58.5247 30.0247 58.7721 30.1067 59.1445 30.1901C59.5169 30.2708 59.8086 30.3684 60.0195 30.483C60.2331 30.595 60.3906 30.7304 60.4922 30.8893C60.5964 31.0481 60.6484 31.2408 60.6484 31.4674C60.6484 31.8476 60.4909 32.1562 60.1758 32.3932C59.8607 32.6276 59.4479 32.7448 58.9375 32.7448C58.5911 32.7448 58.2826 32.6823 58.0117 32.5573C57.7409 32.4323 57.5299 32.2604 57.3789 32.0416C57.2279 31.8229 57.1523 31.5872 57.1523 31.3346H58.0742C58.0872 31.5586 58.1719 31.7317 58.3281 31.8541C58.4844 31.9739 58.6914 32.0338 58.9492 32.0338C59.1992 32.0338 59.3893 31.9869 59.5195 31.8932C59.6497 31.7968 59.7148 31.6718 59.7148 31.5182ZM64.543 31.2018C64.543 30.9518 64.4544 30.7591 64.2773 30.6237C64.1029 30.4882 63.7865 30.3515 63.3281 30.2135C62.8698 30.0755 62.5052 29.9218 62.2344 29.7526C61.7161 29.427 61.457 29.0026 61.457 28.4791C61.457 28.0208 61.6432 27.6432 62.0156 27.3463C62.3906 27.0494 62.8763 26.901 63.4727 26.901C63.8685 26.901 64.2214 26.9739 64.5312 27.1198C64.8411 27.2656 65.0846 27.4739 65.2617 27.7448C65.4388 28.013 65.5273 28.3112 65.5273 28.6393H64.543C64.543 28.3424 64.4492 28.1106 64.2617 27.944C64.0768 27.7747 63.8112 27.6901 63.4648 27.6901C63.1419 27.6901 62.8906 27.7591 62.7109 27.8971C62.5339 28.0351 62.4453 28.2278 62.4453 28.4752C62.4453 28.6836 62.5417 28.858 62.7344 28.9987C62.9271 29.1367 63.2448 29.2721 63.6875 29.4049C64.1302 29.5351 64.4857 29.6849 64.7539 29.8541C65.0221 30.0208 65.2188 30.2135 65.3438 30.4323C65.4688 30.6484 65.5312 30.9023 65.5312 31.194C65.5312 31.6679 65.349 32.0455 64.9844 32.3268C64.6224 32.6054 64.1302 32.7448 63.5078 32.7448C63.0964 32.7448 62.7174 32.6692 62.3711 32.5182C62.0273 32.3645 61.7591 32.1536 61.5664 31.8854C61.3763 31.6171 61.2812 31.3046 61.2812 30.9479H62.2695C62.2695 31.2708 62.3763 31.5208 62.5898 31.6979C62.8034 31.875 63.1094 31.9635 63.5078 31.9635C63.8516 31.9635 64.1094 31.8945 64.2812 31.7565C64.4557 31.6158 64.543 31.4309 64.543 31.2018ZM66.1289 30.5143C66.1289 30.1002 66.2109 29.7278 66.375 29.3971C66.5391 29.0638 66.7695 28.8086 67.0664 28.6315C67.3633 28.4518 67.7044 28.3619 68.0898 28.3619C68.6602 28.3619 69.1224 28.5455 69.4766 28.9127C69.8333 29.2799 70.026 29.7669 70.0547 30.3737L70.0586 30.5963C70.0586 31.013 69.9779 31.3854 69.8164 31.7135C69.6576 32.0416 69.4284 32.2955 69.1289 32.4752C68.832 32.6549 68.4883 32.7448 68.0977 32.7448C67.5013 32.7448 67.0234 32.5468 66.6641 32.151C66.3073 31.7526 66.1289 31.2226 66.1289 30.5612V30.5143ZM67.0781 30.5963C67.0781 31.0312 67.168 31.3724 67.3477 31.6198C67.5273 31.8645 67.7773 31.9869 68.0977 31.9869C68.418 31.9869 68.6667 31.8619 68.8438 31.6119C69.0234 31.3619 69.1133 30.9961 69.1133 30.5143C69.1133 30.0872 69.0208 29.7487 68.8359 29.4987C68.6536 29.2487 68.4049 29.1237 68.0898 29.1237C67.7799 29.1237 67.5339 29.2474 67.3516 29.4948C67.1693 29.7395 67.0781 30.1067 67.0781 30.5963ZM71.8711 32.6666H70.9219V26.6666H71.8711V32.6666ZM75.4688 32.2526C75.1901 32.5807 74.7943 32.7448 74.2812 32.7448C73.8229 32.7448 73.4753 32.6106 73.2383 32.3424C73.0039 32.0742 72.8867 31.6862 72.8867 31.1783V28.4401H73.8359V31.1666C73.8359 31.7031 74.0586 31.9713 74.5039 31.9713C74.9648 31.9713 75.276 31.8059 75.4375 31.4752V28.4401H76.3867V32.6666H75.4922L75.4688 32.2526ZM78.543 27.4127V28.4401H79.2891V29.1432H78.543V31.5026C78.543 31.664 78.5742 31.7812 78.6367 31.8541C78.7018 31.9244 78.8164 31.9596 78.9805 31.9596C79.0898 31.9596 79.2005 31.9466 79.3125 31.9205V32.6549C79.0964 32.7148 78.888 32.7448 78.6875 32.7448C77.9583 32.7448 77.5938 32.3424 77.5938 31.5377V29.1432H76.8984V28.4401H77.5938V27.4127H78.543ZM81.0273 32.6666H80.0781V28.4401H81.0273V32.6666ZM80.0195 27.3424C80.0195 27.1966 80.0651 27.0755 80.1562 26.9791C80.25 26.8828 80.3828 26.8346 80.5547 26.8346C80.7266 26.8346 80.8594 26.8828 80.9531 26.9791C81.0469 27.0755 81.0938 27.1966 81.0938 27.3424C81.0938 27.4856 81.0469 27.6054 80.9531 27.7018C80.8594 27.7955 80.7266 27.8424 80.5547 27.8424C80.3828 27.8424 80.25 27.7955 80.1562 27.7018C80.0651 27.6054 80.0195 27.4856 80.0195 27.3424ZM81.8867 30.5143C81.8867 30.1002 81.9688 29.7278 82.1328 29.3971C82.2969 29.0638 82.5273 28.8086 82.8242 28.6315C83.1211 28.4518 83.4622 28.3619 83.8477 28.3619C84.418 28.3619 84.8802 28.5455 85.2344 28.9127C85.5911 29.2799 85.7839 29.7669 85.8125 30.3737L85.8164 30.5963C85.8164 31.013 85.7357 31.3854 85.5742 31.7135C85.4154 32.0416 85.1862 32.2955 84.8867 32.4752C84.5898 32.6549 84.2461 32.7448 83.8555 32.7448C83.2591 32.7448 82.7812 32.5468 82.4219 32.151C82.0651 31.7526 81.8867 31.2226 81.8867 30.5612V30.5143ZM82.8359 30.5963C82.8359 31.0312 82.9258 31.3724 83.1055 31.6198C83.2852 31.8645 83.5352 31.9869 83.8555 31.9869C84.1758 31.9869 84.4245 31.8619 84.6016 31.6119C84.7812 31.3619 84.8711 30.9961 84.8711 30.5143C84.8711 30.0872 84.7786 29.7487 84.5938 29.4987C84.4115 29.2487 84.1628 29.1237 83.8477 29.1237C83.5378 29.1237 83.2917 29.2474 83.1094 29.4948C82.9271 29.7395 82.8359 30.1067 82.8359 30.5963ZM87.5 28.4401L87.5273 28.9283C87.8398 28.5507 88.25 28.3619 88.7578 28.3619C89.638 28.3619 90.0859 28.8658 90.1016 29.8737V32.6666H89.1523V29.9283C89.1523 29.6601 89.0938 29.4622 88.9766 29.3346C88.862 29.2044 88.6732 29.1393 88.4102 29.1393C88.0273 29.1393 87.7422 29.3125 87.5547 29.6588V32.6666H86.6055V28.4401H87.5Z" fill="black"/>
</svg>
