<svg width="15" height="16" viewBox="0 0 15 16" fill="none" xmlns="http://www.w3.org/2000/svg">
<path d="M12.0156 9.83504C11.7286 9.50712 11.3824 9.33179 11.0155 9.33179C10.6515 9.33179 10.3023 9.50387 10.0034 9.83179L9.06837 10.8545C8.99144 10.8091 8.9145 10.7669 8.84052 10.7247C8.734 10.6662 8.63339 10.611 8.54757 10.5526C7.67168 9.94218 6.87568 9.14672 6.11224 8.11749C5.74235 7.6045 5.49378 7.17268 5.31328 6.73436C5.55593 6.49085 5.78082 6.2376 5.99979 5.99409C6.08264 5.90318 6.1655 5.80903 6.24835 5.71812C6.86976 5.03629 6.86976 4.15317 6.24835 3.47134L5.44052 2.58497C5.34879 2.48432 5.2541 2.38042 5.16532 2.27652C4.98778 2.07522 4.80136 1.86743 4.60901 1.67262C4.32198 1.36093 3.97873 1.19534 3.61772 1.19534C3.25671 1.19534 2.90753 1.36093 2.61162 1.67262C2.60866 1.67587 2.60866 1.67587 2.60571 1.67911L1.59961 2.79276C1.22085 3.20835 1.00483 3.71485 0.957489 4.30252C0.88647 5.25058 1.14095 6.1337 1.33625 6.71163C1.81563 8.13048 2.53173 9.44543 3.59996 10.8545C4.89605 12.5526 6.45549 13.8935 8.23687 14.8383C8.91746 15.1922 9.8259 15.6111 10.8409 15.6825C10.903 15.6857 10.9681 15.689 11.0273 15.689C11.7108 15.689 12.2849 15.4195 12.7347 14.8838C12.7377 14.8773 12.7436 14.8741 12.7465 14.8676C12.9004 14.663 13.0779 14.4779 13.2644 14.2799C13.3916 14.1468 13.5218 14.0072 13.6491 13.8611C13.942 13.5266 14.0959 13.137 14.0959 12.7377C14.0959 12.3351 13.939 11.9487 13.6402 11.624L12.0156 9.83504ZM13.075 13.2539C13.072 13.2539 13.072 13.2572 13.075 13.2539C12.9596 13.3903 12.8412 13.5136 12.714 13.65C12.5216 13.8513 12.3263 14.0624 12.1429 14.2994C11.844 14.65 11.4919 14.8156 11.0303 14.8156C10.9859 14.8156 10.9385 14.8156 10.8941 14.8124C10.0153 14.7507 9.19857 14.374 8.58604 14.0526C6.91119 13.163 5.44052 11.9 4.21841 10.2993C3.20936 8.9649 2.53469 7.73112 2.08786 6.40643C1.81267 5.59798 1.71206 4.96811 1.75644 4.37395C1.78604 3.99407 1.9192 3.67913 2.1648 3.40965L3.17385 2.3025C3.31885 2.15314 3.47272 2.07198 3.62364 2.07198C3.81006 2.07198 3.96097 2.19535 4.05566 2.29925C4.05862 2.3025 4.06158 2.30574 4.06454 2.30899C4.24505 2.49406 4.41667 2.68562 4.59718 2.89017C4.68891 2.99406 4.7836 3.09796 4.87829 3.2051L5.68613 4.09148C5.99979 4.43564 5.99979 4.75382 5.68613 5.09798C5.60031 5.19214 5.51746 5.28629 5.43164 5.3772C5.18308 5.65643 4.94635 5.91617 4.68891 6.16942C4.68299 6.17591 4.67707 6.17916 4.67411 6.18565C4.41963 6.46488 4.46698 6.73761 4.52024 6.92267C4.5232 6.93241 4.52616 6.94215 4.52912 6.95189C4.73921 7.51034 5.03512 8.03632 5.48491 8.66295L5.48787 8.6662C6.30458 9.77011 7.16567 10.6305 8.11554 11.2896C8.23687 11.374 8.36115 11.4422 8.47951 11.5071C8.58604 11.5656 8.68665 11.6208 8.77246 11.6792C8.7843 11.6857 8.79614 11.6954 8.80797 11.7019C8.90858 11.7571 9.00327 11.7831 9.10092 11.7831C9.34653 11.7831 9.5004 11.6143 9.55071 11.5591L10.5627 10.4487C10.6633 10.3383 10.8231 10.2052 11.0095 10.2052C11.193 10.2052 11.3439 10.3318 11.4357 10.4422C11.4386 10.4454 11.4386 10.4454 11.4416 10.4487L13.072 12.2377C13.3768 12.5688 13.3768 12.9097 13.075 13.2539Z" fill="white"/>
<path d="M8.51217 3.96485C9.28745 4.10771 9.99172 4.51031 10.5539 5.1272C11.1162 5.74409 11.4801 6.51682 11.6133 7.36748C11.6459 7.58177 11.8145 7.73112 12.0069 7.73112C12.0305 7.73112 12.0512 7.72787 12.0749 7.72463C12.2939 7.68567 12.4389 7.45839 12.4034 7.21813C12.2436 6.1889 11.7997 5.25058 11.1221 4.50706C10.4445 3.76355 9.58928 3.27653 8.65125 3.10121C8.43228 3.06224 8.2281 3.22134 8.18963 3.45835C8.15116 3.69537 8.2932 3.92589 8.51217 3.96485Z" fill="white"/>
<path d="M14.9392 7.09152C14.6759 5.39669 13.9479 3.85447 12.8294 2.62718C11.7109 1.3999 10.3053 0.601188 8.76064 0.312224C8.54462 0.270016 8.34044 0.432355 8.30198 0.669371C8.26647 0.909633 8.41146 1.13366 8.63044 1.17587C10.0094 1.43237 11.267 2.14991 12.2672 3.24407C13.2673 4.34149 13.9183 5.72137 14.1521 7.23437C14.1847 7.44866 14.3533 7.59801 14.5457 7.59801C14.5693 7.59801 14.5901 7.59477 14.6137 7.59152C14.8297 7.55581 14.9777 7.32853 14.9392 7.09152Z" fill="white"/>
</svg>
